<svg width="38" height="38" viewBox="0 0 38 38" fill="none" xmlns="http://www.w3.org/2000/svg">
<rect width="38" height="38" rx="19" fill="#6D8434"/>
<path d="M12.7 10.9C12.4614 10.9 12.2324 10.9948 12.0637 11.1636C11.8949 11.3324 11.8 11.5613 11.8 11.8C11.8 12.0387 11.8949 12.2676 12.0637 12.4364C12.2324 12.6052 12.4614 12.7 12.7 12.7H13.798L14.0725 13.7998C14.0753 13.8125 14.0783 13.8251 14.0815 13.8376L15.3037 18.7246L14.5 19.5274C13.366 20.6614 14.1688 22.6 15.7726 22.6H23.5C23.7387 22.6 23.9677 22.5052 24.1364 22.3364C24.3052 22.1676 24.4 21.9387 24.4 21.7C24.4 21.4613 24.3052 21.2324 24.1364 21.0636C23.9677 20.8948 23.7387 20.8 23.5 20.8H15.7726L16.6726 19.9H22.6C22.7671 19.8999 22.9309 19.8533 23.073 19.7654C23.2151 19.6775 23.33 19.5518 23.4046 19.4023L26.1046 14.0023C26.1732 13.8651 26.2056 13.7127 26.1987 13.5595C26.1918 13.4063 26.1458 13.2574 26.0652 13.127C25.9846 12.9965 25.872 12.8888 25.7381 12.8141C25.6042 12.7394 25.4534 12.7001 25.3 12.7H15.652L15.373 11.5813C15.3243 11.3867 15.2119 11.214 15.0537 11.0905C14.8956 10.9671 14.7007 10.9 14.5 10.9H12.7ZM24.4 24.85C24.4 25.2081 24.2578 25.5514 24.0046 25.8046C23.7515 26.0578 23.4081 26.2 23.05 26.2C22.692 26.2 22.3486 26.0578 22.0955 25.8046C21.8423 25.5514 21.7 25.2081 21.7 24.85C21.7 24.492 21.8423 24.1486 22.0955 23.8954C22.3486 23.6423 22.692 23.5 23.05 23.5C23.4081 23.5 23.7515 23.6423 24.0046 23.8954C24.2578 24.1486 24.4 24.492 24.4 24.85ZM15.85 26.2C16.2081 26.2 16.5515 26.0578 16.8046 25.8046C17.0578 25.5514 17.2 25.2081 17.2 24.85C17.2 24.492 17.0578 24.1486 16.8046 23.8954C16.5515 23.6423 16.2081 23.5 15.85 23.5C15.492 23.5 15.1486 23.6423 14.8955 23.8954C14.6423 24.1486 14.5 24.492 14.5 24.85C14.5 25.2081 14.6423 25.5514 14.8955 25.8046C15.1486 26.0578 15.492 26.2 15.85 26.2Z" fill="#E8E8E2"/>
</svg>
