<svg width="32" height="32" viewBox="0 0 32 32" fill="none" xmlns="http://www.w3.org/2000/svg">
<circle cx="16" cy="16" r="16" fill="#6D8434"/>
<path d="M16.93 8.88995C16.6405 8.45006 16.2513 8.08462 15.7941 7.82328C14.5375 7.10245 12.9183 7.22912 11.4241 8.06578C8.64998 9.61995 6.83331 12.5416 6.83331 15.9999C6.83331 20.6166 10.175 24.3441 14.5391 25.0499C15.0158 25.1266 15.5033 25.1666 16 25.1666C17.2109 25.1709 18.4107 24.9343 19.5294 24.4708C20.6481 24.0072 21.6635 23.3258 22.5165 22.4662C23.3694 21.6066 24.043 20.586 24.498 19.4638C24.9529 18.3415 25.1802 17.14 25.1666 15.9291C25.1475 14.3191 24.5016 12.3433 23.4808 10.7641C22.4641 9.19078 20.9008 7.75745 18.9583 7.77578C18.01 7.77745 17.3625 8.29912 16.93 8.89078V8.88995ZM22.4758 12.3441C22.1278 12.2881 21.7738 12.2789 21.4233 12.3166L20.4566 10.6916L19.025 11.5416L19.7683 12.7916C19.4573 12.938 19.1602 13.1123 18.8808 13.3124C18.8759 13.2963 18.8709 13.2802 18.8658 13.2641C18.6433 12.5891 18.2133 12.0349 17.64 11.4841L17.6433 11.4674C17.7008 11.1983 17.7925 10.8508 17.93 10.5133C18.2408 9.74995 18.6016 9.44078 18.9633 9.44078H18.9725C20.0483 9.42912 21.1691 10.2549 22.0816 11.6666C22.2233 11.8858 22.355 12.1116 22.4766 12.3433L22.4758 12.3441ZM17.3416 14.8416C17.0666 14.8483 16.7841 14.8791 16.5083 14.9391C16.2834 14.5626 15.9819 14.2375 15.6233 13.9849C14.965 13.5224 14.0633 13.2933 13.0883 13.6574C12.999 13.606 12.909 13.5557 12.8183 13.5066L15.5125 10.8658L14.3458 9.67578L11.15 12.8083C10.475 12.6124 9.84415 12.5424 9.27748 12.6208C9.92959 11.3118 10.9623 10.2306 12.24 9.51912C13.3766 8.88245 14.3541 8.91745 14.9658 9.26828C15.5491 9.60245 16.0333 10.3608 15.9116 11.7158L15.8741 12.1349L16.1891 12.4141C16.8741 13.0199 17.1591 13.4116 17.2825 13.7858C17.3691 14.0483 17.3975 14.3658 17.3416 14.8416ZM15 15.6791C14.2883 16.2749 13.8108 17.1108 13.5333 18.0141L11.055 15.2933L9.82248 16.4166L13.2291 20.1566C13.225 21.1499 13.3525 22.1666 13.5375 23.0858C12.0626 22.5794 10.7834 21.6235 9.87982 20.3525C8.97625 19.0816 8.49369 17.5594 8.49998 15.9999C8.49998 15.1333 8.74081 14.6608 9.02415 14.4541C9.29165 14.2574 9.87915 14.0966 11.0825 14.5408C11.5175 14.7016 12.0208 14.9483 12.5966 15.3066L13.015 15.5666L13.445 15.3249C13.9641 15.0333 14.3608 15.1366 14.665 15.3499C14.7983 15.4433 14.9125 15.5599 15 15.6791ZM16.4708 23.4849L22.5475 16.7874L21.3133 15.6674L18.87 18.3599L18.8758 17.5149L17.2091 17.5033L17.19 20.2116L15.1208 22.4924C14.9641 21.6416 14.8708 20.7274 14.9008 19.8699C14.9541 18.4074 15.5383 17.2058 16.4025 16.7299C16.7608 16.5324 17.3933 16.4549 17.8933 16.5433L18.635 16.6724L18.8391 15.9483C18.9458 15.5708 19.2283 15.1666 19.67 14.8066C20.1181 14.4444 20.6396 14.184 21.1983 14.0433C21.8658 13.8799 22.435 13.9649 22.81 14.2233C23.1375 14.4483 23.4666 14.9083 23.4975 15.8516V15.8666L23.5 15.9999C23.5084 17.91 22.7843 19.7506 21.4767 21.1429C20.1691 22.5353 18.3776 23.3734 16.4708 23.4849Z" fill="#E8E8E2"/>
</svg>
